<svg viewBox="0 0 360 130.07" xmlns="http://www.w3.org/2000/svg"><path d="m0 0h360v130.07h-360z" fill="#fff"/><g fill="#056b38"><path d="m108 90.2h2.76a2.54 2.54 0 1 1 0 5.06h-1.64v3.32h-1.12zm2.76 4.12a1.59 1.59 0 1 0 0-3.18h-1.64v3.18z"/><path d="m116.88 98.79a2.59 2.59 0 1 1 2.75-2.6 2.68 2.68 0 0 1 -2.75 2.6zm0-4.38a1.79 1.79 0 1 0 1.73 1.78 1.7 1.7 0 0 0 -1.73-1.78z"/><path d="m122.07 95.82v2.76h-1v-4.76h.93l.07.82a2.23 2.23 0 0 1 1.85-1v1c-.92-.14-1.85.36-1.85 1.18z"/><path d="m127.12 94.49v4.09h-1v-4.09h-1v-.67h1v-1.61h1v1.61h.95v.67z"/><path d="m129.44 98.58v-8.38h1v8.38z"/><path d="m136.17 98.58-.06-.75a2.26 2.26 0 0 1 -1.84.93 2.57 2.57 0 0 1 0-5.12 2.28 2.28 0 0 1 1.84.93l.06-.75h.9v4.76zm-3.17-2.37a1.6 1.6 0 0 0 1.51 1.79 1.79 1.79 0 0 0 0-3.56 1.61 1.61 0 0 0 -1.51 1.77z"/><path d="m142.51 98.58v-2.81c0-.9-.38-1.31-1.1-1.31a1.57 1.57 0 0 0 -1.55 1.4v2.72h-1v-4.76h.91l.07.82a2.39 2.39 0 0 1 1.92-1c1.29 0 1.79.89 1.79 2.08v2.86z"/><path d="m149 98.58v-.75a2.3 2.3 0 0 1 -1.85.93 2.57 2.57 0 0 1 0-5.12 2.21 2.21 0 0 1 1.79.86v-4.3h1v8.38zm-3.2-2.37a1.6 1.6 0 0 0 1.49 1.79 1.79 1.79 0 0 0 0-3.56 1.61 1.61 0 0 0 -1.54 1.77z"/><path d="m153.7 94.39a4.26 4.26 0 0 1 4.46-4.39 5.11 5.11 0 0 1 2.9.88v1.16a4.18 4.18 0 0 0 -2.9-1.1 3.44 3.44 0 0 0 0 6.87 4.14 4.14 0 0 0 2.9-1.11v1.16a5.11 5.11 0 0 1 -2.9.88 4.26 4.26 0 0 1 -4.46-4.35z"/><path d="m165.25 98.79a2.59 2.59 0 1 1 2.75-2.6 2.68 2.68 0 0 1 -2.75 2.6zm0-4.38a1.79 1.79 0 1 0 1.75 1.78 1.7 1.7 0 0 0 -1.75-1.78z"/><path d="m176.3 98.58v-2.82c0-.89-.29-1.3-1-1.3a1.46 1.46 0 0 0 -1.43 1.4v2.72h-1v-2.82c0-.89-.27-1.3-1-1.3a1.45 1.45 0 0 0 -1.41 1.4v2.72h-1v-4.76h.91l.07.82a2.13 2.13 0 0 1 1.78-1 1.47 1.47 0 0 1 1.58 1.09 2.29 2.29 0 0 1 1.87-1.09c1.29 0 1.69.89 1.69 2.08v2.86z"/><path d="m185.7 98.58v-2.82c0-.89-.3-1.3-1-1.3a1.46 1.46 0 0 0 -1.42 1.4v2.72h-1v-2.82c0-.89-.28-1.3-1-1.3a1.45 1.45 0 0 0 -1.41 1.4v2.72h-1v-4.76h.91l.07.82a2.14 2.14 0 0 1 1.79-1 1.48 1.48 0 0 1 1.58 1.09 2.27 2.27 0 0 1 1.78-1.09c1.28 0 1.69.89 1.69 2.08v2.86z"/><path d="m192 98.58-.07-.82a2.39 2.39 0 0 1 -1.92 1c-1.29 0-1.79-.89-1.79-2.08v-2.86h1v2.8c0 .91.38 1.32 1.1 1.32a1.57 1.57 0 0 0 1.55-1.4v-2.72h1v4.76z"/><path d="m198.07 98.58v-2.81c0-.9-.38-1.31-1.11-1.31a1.58 1.58 0 0 0 -1.55 1.4v2.72h-1v-4.76h.91l.07.82a2.4 2.4 0 0 1 1.93-1c1.28 0 1.78.89 1.78 2.08v2.86z"/><path d="m200.52 92.2v-1.12h1v1.12zm0 6.38v-4.76h1v4.76z"/><path d="m204.89 94.49v4.09h-1v-4.09h-1v-.67h1v-1.61h1v1.61h1v.67z"/><path d="m208.5 101.3h-1l1.3-2.94-2-4.54h1l1.52 3.59 1.51-3.59h1z"/><path d="m214.9 94.39a4.26 4.26 0 0 1 4.46-4.39 5.11 5.11 0 0 1 2.9.88v1.16a4.18 4.18 0 0 0 -2.9-1.1 3.44 3.44 0 0 0 0 6.87 4.14 4.14 0 0 0 2.9-1.11v1.16a5.11 5.11 0 0 1 -2.9.88 4.26 4.26 0 0 1 -4.46-4.35z"/><path d="m226.46 98.79a2.59 2.59 0 1 1 2.75-2.6 2.68 2.68 0 0 1 -2.75 2.6zm0-4.38a1.79 1.79 0 1 0 1.73 1.78 1.7 1.7 0 0 0 -1.73-1.78z"/><path d="m230.35 98.58v-8.38h1v8.38z"/><path d="m233.4 98.58v-8.38h1v8.38z"/><path d="m240.31 96.07h-3.42a1.63 1.63 0 0 0 1.8 1.9 2.54 2.54 0 0 0 1.61-.67v.81a2.87 2.87 0 0 1 -1.9.65 2.41 2.41 0 0 1 -2.51-2.57 2.38 2.38 0 0 1 2.37-2.55 2 2 0 0 1 2.12 1.91 2.32 2.32 0 0 1 -.07.52zm-2-1.69a1.29 1.29 0 0 0 -1.29 1h2.4a.8.8 0 0 0 0-.11c-.03-.45-.42-.89-1.15-.89z"/><path d="m243.84 101.36a4 4 0 0 1 -2-.59v-.88a3.36 3.36 0 0 0 2.08.65c.79 0 1.59-.48 1.59-1.89v-.75a2.22 2.22 0 0 1 -1.79.86 2.57 2.57 0 0 1 0-5.12 2.24 2.24 0 0 1 1.84.93l.06-.75h.91v4.68c.04 2.34-1.44 2.86-2.69 2.86zm.16-6.94a1.8 1.8 0 0 0 0 3.58 1.79 1.79 0 0 0 0-3.56z"/><path d="m252.16 96.07h-3.42a1.63 1.63 0 0 0 1.8 1.9 2.54 2.54 0 0 0 1.61-.67v.81a2.87 2.87 0 0 1 -1.9.65 2.41 2.41 0 0 1 -2.51-2.57 2.38 2.38 0 0 1 2.37-2.55 2 2 0 0 1 2.12 1.91 2.32 2.32 0 0 1 -.07.52zm-2-1.69a1.29 1.29 0 0 0 -1.29 1h2.4a.8.8 0 0 0 0-.11c-.03-.45-.41-.89-1.15-.89z"/></g><g fill="#4b8cca"><path d="m84.41 84.89h-2.27v-5.59h2.17c1.2 0 1.69.67 1.69 1.47a1.44 1.44 0 0 1 -.6 1.09 1.55 1.55 0 0 1 .9 1.39c0 .9-.55 1.64-1.89 1.64zm-1.13-3.34h.85a.7.7 0 0 0 .8-.73c0-.41-.24-.72-.8-.72h-.85zm.93.79h-.93v1.76h.93c.71 0 1-.38 1-.89s-.29-.87-1-.87z"/><path d="m92.76 84.89h-1.25l-1.51-2.22h-.69v2.22h-1.18v-5.59h2.2a1.66 1.66 0 0 1 1.89 1.7 1.52 1.52 0 0 1 -1.12 1.55zm-3.49-3h.87c.71 0 1-.37 1-.86s-.25-.89-1-.89h-.87z"/><path d="m94.46 84.89v-5.59h3.64v.89h-2.5v1.31h2v.89h-2v1.61h2.5v.88z"/><path d="m104.05 84.89-.57-1.38h-2.26l-.57 1.38h-1.1l2.38-5.59h.88l2.37 5.59zm-1.69-4.2-.83 2h1.64z"/><path d="m110.43 84.89-2.43-2.63v2.63h-1.13v-5.59h1.13v2.56l2.26-2.56h1.24l-2.5 2.7 2.78 2.92z"/><path d="m113.29 84.89v-5.59h1.13v5.59z"/><path d="m120.52 84.89-2.92-3.69v3.69h-1v-5.59h.79l2.9 3.7v-3.7h1v5.59z"/><path d="m126.18 85.05a2.94 2.94 0 1 1 .07-5.87 3.54 3.54 0 0 1 2 .57v1a2.75 2.75 0 0 0 -1.87-.69 2 2 0 0 0 -.07 4.09 2.33 2.33 0 0 0 1.08-.23v-1.05h-1v-.87h2.08v2.5a5.73 5.73 0 0 1 -2.29.55z"/><path d="m135.43 84.89h-2.26v-5.59h2.17c1.2 0 1.69.67 1.69 1.47a1.44 1.44 0 0 1 -.6 1.09 1.54 1.54 0 0 1 .89 1.39c0 .9-.55 1.64-1.89 1.64zm-1.12-3.34h.84c.57 0 .81-.32.81-.73s-.24-.72-.81-.72h-.84zm.93.79h-.93v1.76h.93c.71 0 1-.38 1-.89s-.24-.87-1-.87z"/><path d="m143.11 84.89-.56-1.38h-2.27l-.56 1.38h-1.1l2.38-5.59h.89l2.37 5.59zm-1.69-4.2-.83 2h1.65z"/><path d="m150.51 84.89h-1.25l-1.55-2.22h-.71v2.22h-1.14v-5.59h2.2a1.66 1.66 0 0 1 1.94 1.7 1.52 1.52 0 0 1 -1.12 1.55zm-3.49-3h.87c.71 0 1-.37 1-.86s-.25-.89-1-.89h-.89z"/><path d="m156.84 84.89h-1.25l-1.59-2.22h-.69v2.22h-1.14v-5.59h2.2a1.66 1.66 0 0 1 1.93 1.7 1.52 1.52 0 0 1 -1.12 1.55zm-3.49-3h.87c.71 0 1-.37 1-.86s-.25-.89-1-.89h-.87z"/><path d="m158.54 84.89v-5.59h1.14v5.59z"/><path d="m161.84 84.89v-5.59h3.64v.89h-2.48v1.31h2v.89h-2v1.61h2.51v.88z"/><path d="m172.1 84.89h-1.25l-1.55-2.22h-.69v2.22h-1.14v-5.59h2.2a1.66 1.66 0 0 1 1.89 1.7 1.52 1.52 0 0 1 -1.12 1.55zm-3.49-3h.87c.71 0 1-.37 1-.86s-.25-.89-1-.89h-.87z"/><path d="m175.41 85a3 3 0 0 1 -2-.7l.26-.89a2.53 2.53 0 0 0 1.72.75c.56 0 1-.28 1-.77s-.26-.71-1.17-.93c-1.18-.29-1.64-.91-1.64-1.71s.72-1.58 1.92-1.58a2.89 2.89 0 0 1 1.68.55l-.24.79a2.82 2.82 0 0 0 -1.44-.51c-.54 0-.87.24-.87.64s.2.58 1 .77c1.3.32 1.86.87 1.86 1.84-.04 1.23-1.03 1.75-2.08 1.75z"/><path d="m178.38 86.13-.19-.28a1.08 1.08 0 0 0 .57-1h-.56v-1.09h1.13v1a1.43 1.43 0 0 1 -.95 1.37z"/><path d="m186.76 85a2.92 2.92 0 1 1 0-5.83 3.41 3.41 0 0 1 2 .57v1a2.68 2.68 0 0 0 -1.83-.69 2 2 0 0 0 0 4 2.73 2.73 0 0 0 1.83-.69v1a3.33 3.33 0 0 1 -2 .64z"/><path d="m195.75 84.89h-1.25l-1.5-2.22h-.7v2.22h-1.13v-5.59h2.2a1.66 1.66 0 0 1 1.84 1.7 1.52 1.52 0 0 1 -1.12 1.55zm-3.5-3h.88c.71 0 1-.37 1-.86s-.25-.89-1-.89h-.88z"/><path d="m197.92 84.89v-5.59h3.63v.89h-2.5v1.31h2v.89h-2v1.61h2.5v.88z"/><path d="m208 84.89-.57-1.38h-2.26l-.57 1.38h-1.1l2.38-5.59h.88l2.38 5.59zm-1.69-4.2-.83 2h1.64z"/><path d="m213 80.19v4.7h-1.14v-4.7h-1.86v-.89h4.92v.89z"/><path d="m217 84.89v-5.59h1.14v5.59z"/><path d="m224.69 84.89-2.92-3.69v3.69h-1v-5.59h.79l2.91 3.7v-3.7h1v5.59z"/><path d="m230.82 85.05a2.94 2.94 0 1 1 .07-5.87 3.48 3.48 0 0 1 2 .57v1a2.71 2.71 0 0 0 -1.89-.65 2 2 0 0 0 -.06 4.09 2.33 2.33 0 0 0 1.06-.19v-1.13h-1v-.87h2.08v2.5a5.73 5.73 0 0 1 -2.26.55z"/><path d="m240.52 85a2.92 2.92 0 1 1 0-5.83 3.41 3.41 0 0 1 1.95.57v1a2.68 2.68 0 0 0 -1.83-.69 2 2 0 0 0 0 4 2.73 2.73 0 0 0 1.83-.69v1a3.33 3.33 0 0 1 -1.95.64z"/><path d="m248.65 84.89v-2.47h-2.65v2.47h-1.13v-5.59h1.13v2.16h2.64v-2.16h1.13v5.59z"/><path d="m256.37 84.89-.57-1.38h-2.26l-.54 1.38h-1.1l2.37-5.59h.89l2.37 5.59zm-1.7-4.2-.83 2h1.65z"/><path d="m263.54 84.89-2.93-3.69v3.69h-1v-5.59h.79l2.91 3.7v-3.7h1v5.59z"/><path d="m269.66 85.05a2.94 2.94 0 1 1 .08-5.87 3.53 3.53 0 0 1 2 .57v1a2.73 2.73 0 0 0 -1.87-.69 2 2 0 0 0 -.07 4.09 2.33 2.33 0 0 0 1.08-.23v-1.05h-1v-.87h2.12v2.5a5.73 5.73 0 0 1 -2.34.55z"/><path d="m274.56 84.89v-5.59h3.64v.89h-2.5v1.31h2v.89h-2v1.61h2.5v.88z"/><path d="m61.45 70.74-2.85-7.08h-11.6l-2.85 7.08h-1.41l9.49-23.74h1.15l9.49 23.73zm-8.67-21.74-5.33 13.43h10.67z"/><path d="m67.5 70.74v-23.74h1.34v22.5h11.27v1.23z"/><path d="m85.1 70.74v-23.74h12.61v1.23h-11.27v9.41h9.3v1.23h-9.3v10.64h11.27v1.23z"/><path d="m120.73 70.74h-1.62l-7.71-11.15-7.68 11.15h-1.54l8.39-12.18-7.95-11.56h1.62l7.24 10.52 7.27-10.52h1.54l-7.94 11.55z"/></g><path d="m143.6 70.74h-8.35v-23.74h8.35c9.49 0 13.48 5.34 13.48 11.87s-3.99 11.87-13.48 11.87zm-.24-19.85h-3.28v16h3.28c6.48 0 8.78-3.24 8.78-8s-2.3-8-8.78-8z" fill="#fdb71c"/><path d="m161.15 70.74v-23.74h4.85v23.74z" fill="#fdb71c"/><path d="m189.59 70.74-2.41-5.85h-9.61l-2.42 5.85h-4.66l10.08-23.74h3.76l10.09 23.73zm-7.2-17.84-3.52 8.63h7z" fill="#fdb71c"/><path d="m217 49.34-11.56 17.66h11.47v3.76h-17.56v-2.35l11.55-17.64h-11.39v-3.77h17.49z" fill="#fdb71c"/><path d="m220.56 64.13v-3h8.27v3z" fill="#fdb71c"/><path d="m254.38 70.74h-5.3l-6.57-9.45h-3v9.45h-4.82v-23.74h9.33c5.62 0 8 3.32 8 7.16a6.47 6.47 0 0 1 -4.74 6.6zm-14.84-12.85h3.72c3 0 4.08-1.59 4.08-3.68s-1.07-3.76-4.08-3.76h-3.72z" fill="#fdb71c"/><path d="m259.2 70.74v-23.74h4.8v23.74z" fill="#fdb71c"/><path d="m282.57 71.41c-7.27 0-12.93-5.26-12.93-12.53s5.66-12.54 12.93-12.54 12.82 5.26 12.82 12.54-5.58 12.53-12.82 12.53zm0-21.24c-4.74 0-7.87 3.56-7.87 8.71s3.13 8.7 7.87 8.7 7.76-3.56 7.76-8.7-3.09-8.71-7.76-8.71z" fill="#fdb71c"/><path d="m308 71.21a12.72 12.72 0 0 1 -8.42-3l1.11-3.8a10.68 10.68 0 0 0 7.31 3.25c2.38 0 4.2-1.19 4.2-3.29s-1.11-3-5-4c-5-1.23-7-3.88-7-7.28 0-3.88 3.09-6.68 8.19-6.68a12 12 0 0 1 7.12 2.33l-1 3.36a11.91 11.91 0 0 0 -6.13-2.06c-2.33 0-3.72 1-3.72 2.73 0 1.39.83 2.46 4.08 3.25 5.53 1.38 7.91 3.72 7.91 7.83.06 5.15-4.14 7.36-8.65 7.36z" fill="#fdb71c"/><path d="m322.15 95.43h-64.7v-1h63.7v-53.74h-282.3v53.74h63.7v1h-64.7v-55.74h284.3z" fill="#056b38"/><path d="m149.68 26.21h1.14l2.85 6.68 2.85-6.68h1.09l-3.61 8.38h-.73z" fill="#4b8cca"/><path d="m158.36 30.4a4.45 4.45 0 1 1 4.46 4.43 4.3 4.3 0 0 1 -4.46-4.43zm7.74 0a3.3 3.3 0 1 0 -6.58 0 3.3 3.3 0 1 0 6.58 0z" fill="#4b8cca"/><path d="m170.94 27.15h-3v-.94h7.06v.94h-3v7.44h-1.12z" fill="#4b8cca"/><path d="m176.71 26.21h5.06v.94h-4v2.55h3.26v.94h-3.26v3h4v.94h-5.06z" fill="#4b8cca"/><path d="m187 26.21h5v.94h-4v2.55h3.25v.94h-3.25v4h-1z" fill="#4b8cca"/><path d="m193.17 30.4a4.45 4.45 0 1 1 4.46 4.43 4.3 4.3 0 0 1 -4.46-4.43zm7.74 0a3.3 3.3 0 1 0 -6.58 0 3.3 3.3 0 1 0 6.58 0z" fill="#4b8cca"/><path d="m204.11 26.21h2.76c1.91 0 2.74 1.11 2.74 2.46a2.24 2.24 0 0 1 -1.73 2.33l2.54 3.59h-1.3l-2.4-3.46h-1.5v3.46h-1.11zm2.76 4a1.52 1.52 0 1 0 0-3h-1.65v3z" fill="#4b8cca"/></svg>